<svg xmlns="http://www.w3.org/2000/svg" xmlns:xlink="http://www.w3.org/1999/xlink" version="1.1" width="1000" height="1000" viewBox="0 0 1000 1000" xml:space="preserve">
<desc>Created with Fabric.js 3.5.0</desc>
<defs>
</defs>
<rect x="0" y="0" width="100%" height="100%" fill="#ffffff"/>
<g transform="matrix(1.4368 0 0 1.4368 499.9898 625.2568)" id="538854">
<g style="" vector-effect="non-scaling-stroke">
		<g transform="matrix(1 0 0 1 -291.8801 72.903)">
<path style="stroke: rgb(0,0,0); stroke-width: 0.4009; stroke-dasharray: none; stroke-linecap: butt; stroke-dashoffset: 0; stroke-linejoin: round; stroke-miterlimit: 4; is-custom-font: none; font-file-url: none; fill: rgb(204,204,204); fill-rule: evenodd; opacity: 1;" transform=" translate(-70.3853, -396.5403)" d="m 80.451 435.92 l 0.70635 -73.814 l -21.544 -9.5357 l 3.1786 87.94 l 17.659 -4.5913 z" stroke-linecap="round"/>
</g>
		<g transform="matrix(1 0 0 1 -294.4744 -30.6281)">
<path style="stroke: rgb(0,0,0); stroke-width: 0.4009; stroke-dasharray: none; stroke-linecap: butt; stroke-dashoffset: 0; stroke-linejoin: round; stroke-miterlimit: 4; is-custom-font: none; font-file-url: none; fill: rgb(128,128,128); fill-rule: evenodd; opacity: 1;" transform=" translate(-67.791, -293.0092)" d="m 29.134 280.71 l -1.6088 3.3575 l 0.24973 5.3692 l 36.043 15.872 l 39.369 -11.172 l 4.8698 -11.488 l -45.701 12.487 l -33.222 -14.426 z" stroke-linecap="round"/>
</g>
		<g transform="matrix(1 0 0 1 -231.3973 -27.5402)">
<path style="stroke: rgb(0,0,0); stroke-width: 0.4009; stroke-dasharray: none; stroke-linecap: butt; stroke-dashoffset: 0; stroke-linejoin: round; stroke-miterlimit: 4; is-custom-font: none; font-file-url: none; fill: rgb(128,128,128); fill-rule: evenodd; opacity: 1;" transform=" translate(-130.8681, -296.097)" d="m 158.64 304.21 l -50.63 -21.683 l -4.9139 11.73 l 34.772 15.41 l 20.772 -5.4575 z" stroke-linecap="round"/>
</g>
		<g transform="matrix(1 0 0 1 -239.4727 3.4669)">
<path style="stroke: rgb(0,0,0); stroke-width: 0.4009; stroke-dasharray: none; stroke-linecap: butt; stroke-dashoffset: 0; stroke-linejoin: round; stroke-miterlimit: 4; is-custom-font: none; font-file-url: none; fill: rgb(128,128,128); fill-rule: evenodd; opacity: 1;" transform=" translate(-122.7926, -327.1042)" d="m 111.43 316.99 l -11.238 4.2454 l 36.96 15.983 l 8.2412 -5.1195 l -33.964 -15.109 z" stroke-linecap="round"/>
</g>
		<g transform="matrix(1 0 0 1 -278.6199 -16.4518)">
<path style="stroke: rgb(0,0,0); stroke-width: 0.4009; stroke-dasharray: none; stroke-linecap: butt; stroke-dashoffset: 0; stroke-linejoin: round; stroke-miterlimit: 4; is-custom-font: none; font-file-url: none; fill: rgb(128,128,128); fill-rule: evenodd; opacity: 1;" transform=" translate(-83.6454, -307.1855)" d="m 63.854 305.25 l 0.12488 14.859 l 39.458 -10.988 l -0.12486 -14.859 l -39.458 10.988 z" stroke-linecap="round"/>
</g>
		<g transform="matrix(1 0 0 1 -241.6783 -19.0774)">
<path style="stroke: rgb(0,0,0); stroke-width: 0.4009; stroke-dasharray: none; stroke-linecap: butt; stroke-dashoffset: 0; stroke-linejoin: round; stroke-miterlimit: 4; is-custom-font: none; font-file-url: none; fill: rgb(102,102,102); fill-rule: evenodd; opacity: 1;" transform=" translate(-120.587, -304.5598)" d="m 103.44 309 l 14.734 5.8687 l 19.81 -5.2078 l -34.794 -15.41 l 0.24974 14.749 z" stroke-linecap="round"/>
</g>
		<g transform="matrix(1 0 0 1 -270.7075 -1.4726)">
<path style="stroke: rgb(0,0,0); stroke-width: 0.4009; stroke-dasharray: none; stroke-linecap: butt; stroke-dashoffset: 0; stroke-linejoin: round; stroke-miterlimit: 4; is-custom-font: none; font-file-url: none; fill: rgb(77,77,77); fill-rule: evenodd; opacity: 1;" transform=" translate(-91.5578, -322.1647)" d="m 64.478 319.98 l 35.462 15.483 l 0.12486 -14.235 l 11.352 -4.1978 l 7.2208 -1.9717 l -14.951 -6.1922 l -39.208 11.113 z" stroke-linecap="round"/>
</g>
		<g transform="matrix(1 0 0 1 -304.0647 71.8429)">
<path style="stroke: rgb(0,0,0); stroke-width: 0.4009; stroke-dasharray: none; stroke-linecap: butt; stroke-dashoffset: 0; stroke-linejoin: round; stroke-miterlimit: 4; is-custom-font: none; font-file-url: none; fill: rgb(204,204,204); fill-rule: evenodd; opacity: 1;" transform=" translate(-58.2007, -395.4801)" d="m 62.792 440.51 l -7.4167 -3.5317 l -1.7659 -86.528 l 6.3572 2.1191 l 2.8254 87.94 z" stroke-linecap="round"/>
</g>
		<g transform="matrix(1 0 0 1 -279.434 15.8292)">
<path style="stroke: rgb(0,0,0); stroke-width: 0.4009; stroke-dasharray: none; stroke-linecap: butt; stroke-dashoffset: 0; stroke-linejoin: round; stroke-miterlimit: 4; is-custom-font: none; font-file-url: none; fill: rgb(102,102,102); fill-rule: evenodd; opacity: 1;" transform=" translate(-82.8314, -339.4665)" d="m 27.768 289.52 l 0.7492 51.195 l 109.38 48.698 l -0.74919 -52.194 l -36.711 -15.733 l -0.49948 13.985 l -36.211 -15.483 v -14.734 l -35.961 -15.733 z" stroke-linecap="round"/>
</g>
		<g transform="matrix(1 0 0 1 -228.2219 79.9251)">
<path style="stroke: rgb(0,0,0); stroke-width: 0.4009; stroke-dasharray: none; stroke-linecap: butt; stroke-dashoffset: 0; stroke-linejoin: round; stroke-miterlimit: 4; is-custom-font: none; font-file-url: none; fill: rgb(153,153,153); fill-rule: evenodd; opacity: 1;" transform=" translate(-134.0434, -403.5623)" d="m 130.6 388.42 l 6.7986 3.1786 l 0.44147 27.106 l -7.5933 -3.1786 l 0.35318 -27.106 z" stroke-linecap="round"/>
</g>
		<g transform="matrix(1 0 0 1 -215.863 81.6423)">
<path style="stroke: rgb(0,0,0); stroke-width: 0.4009; stroke-dasharray: none; stroke-linecap: butt; stroke-dashoffset: 0; stroke-linejoin: round; stroke-miterlimit: 4; is-custom-font: none; font-file-url: none; fill: rgb(204,204,204); fill-rule: evenodd; opacity: 1;" transform=" translate(-146.4023, -405.2796)" d="m 137.75 418.7 l 17.57 -4.4147 v -22.329 l -8.6528 2.2073 l -3.002 -0.01514 l -6.1806 -2.2894 l 0.26488 26.841 z" stroke-linecap="round"/>
</g>
		<g transform="matrix(1.1315 0 0 1.1315 -147.2033 20.6866)">
<path style="stroke: rgb(0,0,0); stroke-width: 0.3543; stroke-dasharray: none; stroke-linecap: butt; stroke-dashoffset: 0; stroke-linejoin: round; stroke-miterlimit: 4; is-custom-font: none; font-file-url: none; fill: rgb(102,102,102); fill-rule: evenodd; opacity: 1;" transform=" translate(-241.0102, -335.6367)" d="m 215.85 339.72 l 41.713 -12.139 l 8.6074 4.1933 l -42.595 11.918 l -7.7246 -3.9726 z" stroke-linecap="round"/>
</g>
		<g transform="matrix(1.1315 0 0 1.1315 -160.4441 55.8634)">
<path style="stroke: rgb(0,0,0); stroke-width: 0.3543; stroke-dasharray: none; stroke-linecap: butt; stroke-dashoffset: 0; stroke-linejoin: round; stroke-miterlimit: 4; is-custom-font: none; font-file-url: none; fill: rgb(179,179,179); fill-rule: evenodd; opacity: 1;" transform=" translate(-229.3082, -366.7253)" d="m 223.57 343.69 l 19.422 46.347 l -6.4004 3.7519 l -15.891 -39.064 l -5.0761 -1.3242 l 0.11035 -13.739 l 7.8349 4.0278 z" stroke-linecap="round"/>
</g>
		<g transform="matrix(1.1315 0 0 1.1315 -141.0236 92.0745)">
<path style="stroke: rgb(0,0,0); stroke-width: 0.3543; stroke-dasharray: none; stroke-linecap: butt; stroke-dashoffset: 0; stroke-linejoin: round; stroke-miterlimit: 4; is-custom-font: none; font-file-url: none; fill: rgb(179,179,179); fill-rule: evenodd; opacity: 1;" transform=" translate(-246.4717, -398.728)" d="m 236.54 393.9 l 11.201 13.794 h 8.6625 l -13.352 -17.932 l -6.5107 4.1382 z" stroke-linecap="round"/>
</g>
		<g transform="matrix(1.1315 0 0 1.1315 -132.4754 49.0277)">
<path style="stroke: rgb(0,0,0); stroke-width: 0.3543; stroke-dasharray: none; stroke-linecap: butt; stroke-dashoffset: 0; stroke-linejoin: round; stroke-miterlimit: 4; is-custom-font: none; font-file-url: none; fill: rgb(230,230,230); fill-rule: evenodd; opacity: 1;" transform=" translate(-254.0265, -360.684)" d="m 223.79 343.69 l 42.375 -11.918 l 18.098 45.906 l -41.271 11.918 l -19.201 -45.906 z" stroke-linecap="round"/>
</g>
		<g transform="matrix(1.1315 0 0 1.1315 -121.6452 85.205)">
<path style="stroke: rgb(0,0,0); stroke-width: 0.3543; stroke-dasharray: none; stroke-linecap: butt; stroke-dashoffset: 0; stroke-linejoin: round; stroke-miterlimit: 4; is-custom-font: none; font-file-url: none; fill: rgb(204,204,204); fill-rule: evenodd; opacity: 1;" transform=" translate(-263.598, -392.6568)" d="m 242.99 389.76 l 41.216 -12.028 v 1.8208 l -12.414 22.732 l -15.504 5.2968 l -13.297 -17.822 z" stroke-linecap="round"/>
</g>
		<g transform="matrix(1.1315 0 0 1.1315 -134.0951 148.1355)">
<path style="stroke: rgb(0,0,0); stroke-width: 0.3543; stroke-dasharray: none; stroke-linecap: butt; stroke-dashoffset: 0; stroke-linejoin: round; stroke-miterlimit: 4; is-custom-font: none; font-file-url: none; fill: rgb(179,179,179); fill-rule: evenodd; opacity: 1;" transform=" translate(-252.595, -448.2738)" d="m 257.34 488.91 l -1.0483 -81.273 l -8.4418 -0.00001 l 3.5312 78.846 l 5.959 2.4277 z" stroke-linecap="round"/>
</g>
		<g transform="matrix(1.1315 0 0 1.1315 -120.1107 145.2927)">
<path style="stroke: rgb(0,0,0); stroke-width: 0.3543; stroke-dasharray: none; stroke-linecap: butt; stroke-dashoffset: 0; stroke-linejoin: round; stroke-miterlimit: 4; is-custom-font: none; font-file-url: none; fill: rgb(204,204,204); fill-rule: evenodd; opacity: 1;" transform=" translate(-264.9542, -445.7613)" d="m 257.34 489.35 l 16.332 -4.8554 l -1.7656 -82.322 l -15.67 5.5175 l 1.1035 81.66 z" stroke-linecap="round"/>
</g>
		<g transform="matrix(1.1315 0 0 1.1315 -85.7255 44.9902)">
<path style="stroke: rgb(0,0,0); stroke-width: 0.3543; stroke-dasharray: none; stroke-linecap: butt; stroke-dashoffset: 0; stroke-linejoin: round; stroke-miterlimit: 4; is-custom-font: none; font-file-url: none; fill: rgb(204,204,204); fill-rule: evenodd; opacity: 1;" transform=" translate(-295.3432, -357.1157)" d="m 292.3 348.61 l -0.15606 14.982 l 6.2424 2.1848 l 0.15606 -2.9651 l -5.7742 -14.357 l -0.46818 0.15606 z" stroke-linecap="round"/>
</g>
		<g transform="matrix(1 0 0 1 -15.2097 25.3118)">
<path style="stroke: rgb(0,0,0); stroke-width: 0.4009; stroke-dasharray: none; stroke-linecap: butt; stroke-dashoffset: 0; stroke-linejoin: round; stroke-miterlimit: 4; is-custom-font: none; font-file-url: none; fill: rgb(204,204,204); fill-rule: evenodd; opacity: 1;" transform=" translate(-347.0556, -348.9491)" d="m 342.95 339.59 l 1.501 -0.52976 l 6.2688 15.363 l 0.44147 4.4147 l -8.0347 -3.3552 l -0.17659 -15.893 z" stroke-linecap="round"/>
</g>
		<g transform="matrix(1 0 0 1 56.1778 4.9595)">
<path style="stroke: rgb(0,0,0); stroke-width: 0.4009; stroke-dasharray: none; stroke-linecap: butt; stroke-dashoffset: 0; stroke-linejoin: round; stroke-miterlimit: 4; is-custom-font: none; font-file-url: none; fill: rgb(204,204,204); fill-rule: evenodd; opacity: 1;" transform=" translate(-418.4432, -328.5967)" d="m 414.47 319.37 l 0.08829 15.893 l 7.8581 3.3552 v -7.505 l -4.9444 -12.538 l -3.002 0.79464 z" stroke-linecap="round"/>
</g>
		<g transform="matrix(1 0 0 1 124.7798 -14.6778)">
<path style="stroke: rgb(0,0,0); stroke-width: 0.4009; stroke-dasharray: none; stroke-linecap: butt; stroke-dashoffset: 0; stroke-linejoin: round; stroke-miterlimit: 4; is-custom-font: none; font-file-url: none; fill: rgb(179,179,179); fill-rule: evenodd; opacity: 1;" transform=" translate(-487.0452, -308.9594)" d="m 483.69 300.13 l -0.08829 15.628 l 6.8869 3.7966 l -0.17659 -17.747 l -1.3244 -3.4434 l -5.2976 1.7659 z" stroke-linecap="round"/>
</g>
		<g transform="matrix(1 0 0 1 131.2201 -12.9185)">
<path style="stroke: rgb(0,0,0); stroke-width: 0.4009; stroke-dasharray: none; stroke-linecap: butt; stroke-dashoffset: 0; stroke-linejoin: round; stroke-miterlimit: 4; is-custom-font: none; font-file-url: none; fill: rgb(204,204,204); fill-rule: evenodd; opacity: 1;" transform=" translate(-493.4854, -310.7188)" d="m 490.66 319.46 l 5.9157 -2.5605 l -6.1806 -14.922 l 0.26488 17.482 z" stroke-linecap="round"/>
</g>
		<g transform="matrix(1 0 0 1 57.0899 -36.2092)">
<path style="stroke: rgb(0,0,0); stroke-width: 0.4009; stroke-dasharray: none; stroke-linecap: butt; stroke-dashoffset: 0; stroke-linejoin: round; stroke-miterlimit: 4; is-custom-font: none; font-file-url: none; fill: rgb(128,128,128); fill-rule: evenodd; opacity: 0.99;" transform=" translate(-419.3553, -287.428)" d="m 146.33 394.47 l 546.98 -153.4 l -0.49946 -60.685 l -547.41 151.59 l 0.9365 62.496 z" stroke-linecap="round"/>
</g>
		<g transform="matrix(1.1315 0 0 1.1315 -147.2033 20.6866)">
<path style="stroke: rgb(0,0,0); stroke-width: 0.3543; stroke-dasharray: none; stroke-linecap: butt; stroke-dashoffset: 0; stroke-linejoin: round; stroke-miterlimit: 4; is-custom-font: none; font-file-url: none; fill: rgb(102,102,102); fill-rule: evenodd; opacity: 1;" transform=" translate(-241.0102, -335.6367)" d="m 215.85 339.72 l 41.713 -12.139 l 8.6074 4.1933 l -42.595 11.918 l -7.7246 -3.9726 z" stroke-linecap="round"/>
</g>
		<g transform="matrix(1.1315 0 0 1.1315 -160.4441 55.8634)">
<path style="stroke: rgb(0,0,0); stroke-width: 0.3543; stroke-dasharray: none; stroke-linecap: butt; stroke-dashoffset: 0; stroke-linejoin: round; stroke-miterlimit: 4; is-custom-font: none; font-file-url: none; fill: rgb(179,179,179); fill-rule: evenodd; opacity: 1;" transform=" translate(-229.3082, -366.7253)" d="m 223.57 343.69 l 19.422 46.347 l -6.4004 3.7519 l -15.891 -39.064 l -5.0761 -1.3242 l 0.11035 -13.739 l 7.8349 4.0278 z" stroke-linecap="round"/>
</g>
		<g transform="matrix(1.1315 0 0 1.1315 -141.0236 92.0745)">
<path style="stroke: rgb(0,0,0); stroke-width: 0.3543; stroke-dasharray: none; stroke-linecap: butt; stroke-dashoffset: 0; stroke-linejoin: round; stroke-miterlimit: 4; is-custom-font: none; font-file-url: none; fill: rgb(179,179,179); fill-rule: evenodd; opacity: 1;" transform=" translate(-246.4717, -398.728)" d="m 236.54 393.9 l 11.201 13.794 h 8.6625 l -13.352 -17.932 l -6.5107 4.1382 z" stroke-linecap="round"/>
</g>
		<g transform="matrix(1.1315 0 0 1.1315 -132.4754 49.0277)">
<path style="stroke: rgb(0,0,0); stroke-width: 0.3543; stroke-dasharray: none; stroke-linecap: butt; stroke-dashoffset: 0; stroke-linejoin: round; stroke-miterlimit: 4; is-custom-font: none; font-file-url: none; fill: rgb(230,230,230); fill-rule: evenodd; opacity: 1;" transform=" translate(-254.0265, -360.684)" d="m 223.79 343.69 l 42.375 -11.918 l 18.098 45.906 l -41.271 11.918 l -19.201 -45.906 z" stroke-linecap="round"/>
</g>
		<g transform="matrix(1.1315 0 0 1.1315 -121.6452 85.205)">
<path style="stroke: rgb(0,0,0); stroke-width: 0.3543; stroke-dasharray: none; stroke-linecap: butt; stroke-dashoffset: 0; stroke-linejoin: round; stroke-miterlimit: 4; is-custom-font: none; font-file-url: none; fill: rgb(204,204,204); fill-rule: evenodd; opacity: 1;" transform=" translate(-263.598, -392.6568)" d="m 242.99 389.76 l 41.216 -12.028 v 1.8208 l -12.414 22.732 l -15.504 5.2968 l -13.297 -17.822 z" stroke-linecap="round"/>
</g>
		<g transform="matrix(1.1315 0 0 1.1315 -134.0951 148.1355)">
<path style="stroke: rgb(0,0,0); stroke-width: 0.3543; stroke-dasharray: none; stroke-linecap: butt; stroke-dashoffset: 0; stroke-linejoin: round; stroke-miterlimit: 4; is-custom-font: none; font-file-url: none; fill: rgb(179,179,179); fill-rule: evenodd; opacity: 1;" transform=" translate(-252.595, -448.2738)" d="m 257.34 488.91 l -1.0483 -81.273 l -8.4418 -0.00001 l 3.5312 78.846 l 5.959 2.4277 z" stroke-linecap="round"/>
</g>
		<g transform="matrix(1.1315 0 0 1.1315 -120.1107 145.2927)">
<path style="stroke: rgb(0,0,0); stroke-width: 0.3543; stroke-dasharray: none; stroke-linecap: butt; stroke-dashoffset: 0; stroke-linejoin: round; stroke-miterlimit: 4; is-custom-font: none; font-file-url: none; fill: rgb(204,204,204); fill-rule: evenodd; opacity: 1;" transform=" translate(-264.9542, -445.7613)" d="m 257.34 489.35 l 16.332 -4.8554 l -1.7656 -82.322 l -15.67 5.5175 l 1.1035 81.66 z" stroke-linecap="round"/>
</g>
		<g transform="matrix(1 0 0 1 -85.7119 45.0063)">
<path style="stroke: rgb(0,0,0); stroke-width: 0.4009; stroke-dasharray: none; stroke-linecap: butt; stroke-dashoffset: 0; stroke-linejoin: round; stroke-miterlimit: 4; is-custom-font: none; font-file-url: none; fill: rgb(204,204,204); fill-rule: evenodd; opacity: 1;" transform=" translate(-276.5535, -368.6436)" d="m 273.11 359.02 l -0.17659 16.952 l 7.0635 2.4722 l 0.17659 -3.3552 l -6.5337 -16.246 l -0.52976 0.17659 z" stroke-linecap="round"/>
</g>
		<g transform="matrix(1.1315 0 0 1.1315 -71.6233 -0.5044)">
<path style="stroke: rgb(0,0,0); stroke-width: 0.3543; stroke-dasharray: none; stroke-linecap: butt; stroke-dashoffset: 0; stroke-linejoin: round; stroke-miterlimit: 4; is-custom-font: none; font-file-url: none; fill: rgb(102,102,102); fill-rule: evenodd; opacity: 1;" transform=" translate(-241.0102, -335.6367)" d="m 215.85 339.72 l 41.713 -12.139 l 8.6074 4.1933 l -42.595 11.918 l -7.7246 -3.9726 z" stroke-linecap="round"/>
</g>
		<g transform="matrix(1.1315 0 0 1.1315 -84.8641 34.6724)">
<path style="stroke: rgb(0,0,0); stroke-width: 0.3543; stroke-dasharray: none; stroke-linecap: butt; stroke-dashoffset: 0; stroke-linejoin: round; stroke-miterlimit: 4; is-custom-font: none; font-file-url: none; fill: rgb(179,179,179); fill-rule: evenodd; opacity: 1;" transform=" translate(-229.3082, -366.7253)" d="m 223.57 343.69 l 19.422 46.347 l -6.4004 3.7519 l -15.891 -39.064 l -5.0761 -1.3242 l 0.11035 -13.739 l 7.8349 4.0278 z" stroke-linecap="round"/>
</g>
		<g transform="matrix(1.1315 0 0 1.1315 -65.4436 70.8835)">
<path style="stroke: rgb(0,0,0); stroke-width: 0.3543; stroke-dasharray: none; stroke-linecap: butt; stroke-dashoffset: 0; stroke-linejoin: round; stroke-miterlimit: 4; is-custom-font: none; font-file-url: none; fill: rgb(179,179,179); fill-rule: evenodd; opacity: 1;" transform=" translate(-246.4717, -398.728)" d="m 236.54 393.9 l 11.201 13.794 h 8.6625 l -13.352 -17.932 l -6.5107 4.1382 z" stroke-linecap="round"/>
</g>
		<g transform="matrix(1.1315 0 0 1.1315 -56.8954 27.8367)">
<path style="stroke: rgb(0,0,0); stroke-width: 0.3543; stroke-dasharray: none; stroke-linecap: butt; stroke-dashoffset: 0; stroke-linejoin: round; stroke-miterlimit: 4; is-custom-font: none; font-file-url: none; fill: rgb(230,230,230); fill-rule: evenodd; opacity: 1;" transform=" translate(-254.0265, -360.684)" d="m 223.79 343.69 l 42.375 -11.918 l 18.098 45.906 l -41.271 11.918 l -19.201 -45.906 z" stroke-linecap="round"/>
</g>
		<g transform="matrix(1.1315 0 0 1.1315 -46.0652 64.014)">
<path style="stroke: rgb(0,0,0); stroke-width: 0.3543; stroke-dasharray: none; stroke-linecap: butt; stroke-dashoffset: 0; stroke-linejoin: round; stroke-miterlimit: 4; is-custom-font: none; font-file-url: none; fill: rgb(204,204,204); fill-rule: evenodd; opacity: 1;" transform=" translate(-263.598, -392.6568)" d="m 242.99 389.76 l 41.216 -12.028 v 1.8208 l -12.414 22.732 l -15.504 5.2968 l -13.297 -17.822 z" stroke-linecap="round"/>
</g>
		<g transform="matrix(1.1315 0 0 1.1315 -58.5151 126.9445)">
<path style="stroke: rgb(0,0,0); stroke-width: 0.3543; stroke-dasharray: none; stroke-linecap: butt; stroke-dashoffset: 0; stroke-linejoin: round; stroke-miterlimit: 4; is-custom-font: none; font-file-url: none; fill: rgb(179,179,179); fill-rule: evenodd; opacity: 1;" transform=" translate(-252.595, -448.2738)" d="m 257.34 488.91 l -1.0483 -81.273 l -8.4418 -0.00001 l 3.5312 78.846 l 5.959 2.4277 z" stroke-linecap="round"/>
</g>
		<g transform="matrix(1.1315 0 0 1.1315 -44.5307 124.1017)">
<path style="stroke: rgb(0,0,0); stroke-width: 0.3543; stroke-dasharray: none; stroke-linecap: butt; stroke-dashoffset: 0; stroke-linejoin: round; stroke-miterlimit: 4; is-custom-font: none; font-file-url: none; fill: rgb(204,204,204); fill-rule: evenodd; opacity: 1;" transform=" translate(-264.9542, -445.7613)" d="m 257.34 489.35 l 16.332 -4.8554 l -1.7656 -82.322 l -15.67 5.5175 l 1.1035 81.66 z" stroke-linecap="round"/>
</g>
		<g transform="matrix(1.1315 0 0 1.1315 -0.2823 -20.2814)">
<path style="stroke: rgb(0,0,0); stroke-width: 0.3543; stroke-dasharray: none; stroke-linecap: butt; stroke-dashoffset: 0; stroke-linejoin: round; stroke-miterlimit: 4; is-custom-font: none; font-file-url: none; fill: rgb(102,102,102); fill-rule: evenodd; opacity: 1;" transform=" translate(-241.0102, -335.6367)" d="m 215.85 339.72 l 41.713 -12.139 l 8.6074 4.1933 l -42.595 11.918 l -7.7246 -3.9726 z" stroke-linecap="round"/>
</g>
		<g transform="matrix(1.1315 0 0 1.1315 -13.5231 14.8954)">
<path style="stroke: rgb(0,0,0); stroke-width: 0.3543; stroke-dasharray: none; stroke-linecap: butt; stroke-dashoffset: 0; stroke-linejoin: round; stroke-miterlimit: 4; is-custom-font: none; font-file-url: none; fill: rgb(179,179,179); fill-rule: evenodd; opacity: 1;" transform=" translate(-229.3082, -366.7253)" d="m 223.57 343.69 l 19.422 46.347 l -6.4004 3.7519 l -15.891 -39.064 l -5.0761 -1.3242 l 0.11035 -13.739 l 7.8349 4.0278 z" stroke-linecap="round"/>
</g>
		<g transform="matrix(1.1315 0 0 1.1315 5.8974 51.1065)">
<path style="stroke: rgb(0,0,0); stroke-width: 0.3543; stroke-dasharray: none; stroke-linecap: butt; stroke-dashoffset: 0; stroke-linejoin: round; stroke-miterlimit: 4; is-custom-font: none; font-file-url: none; fill: rgb(179,179,179); fill-rule: evenodd; opacity: 1;" transform=" translate(-246.4717, -398.728)" d="m 236.54 393.9 l 11.201 13.794 h 8.6625 l -13.352 -17.932 l -6.5107 4.1382 z" stroke-linecap="round"/>
</g>
		<g transform="matrix(1.1315 0 0 1.1315 14.4456 8.0597)">
<path style="stroke: rgb(0,0,0); stroke-width: 0.3543; stroke-dasharray: none; stroke-linecap: butt; stroke-dashoffset: 0; stroke-linejoin: round; stroke-miterlimit: 4; is-custom-font: none; font-file-url: none; fill: rgb(230,230,230); fill-rule: evenodd; opacity: 1;" transform=" translate(-254.0265, -360.684)" d="m 223.79 343.69 l 42.375 -11.918 l 18.098 45.906 l -41.271 11.918 l -19.201 -45.906 z" stroke-linecap="round"/>
</g>
		<g transform="matrix(1.1315 0 0 1.1315 25.2758 44.237)">
<path style="stroke: rgb(0,0,0); stroke-width: 0.3543; stroke-dasharray: none; stroke-linecap: butt; stroke-dashoffset: 0; stroke-linejoin: round; stroke-miterlimit: 4; is-custom-font: none; font-file-url: none; fill: rgb(204,204,204); fill-rule: evenodd; opacity: 1;" transform=" translate(-263.598, -392.6568)" d="m 242.99 389.76 l 41.216 -12.028 v 1.8208 l -12.414 22.732 l -15.504 5.2968 l -13.297 -17.822 z" stroke-linecap="round"/>
</g>
		<g transform="matrix(1.1315 0 0 1.1315 12.8259 107.1675)">
<path style="stroke: rgb(0,0,0); stroke-width: 0.3543; stroke-dasharray: none; stroke-linecap: butt; stroke-dashoffset: 0; stroke-linejoin: round; stroke-miterlimit: 4; is-custom-font: none; font-file-url: none; fill: rgb(179,179,179); fill-rule: evenodd; opacity: 1;" transform=" translate(-252.595, -448.2738)" d="m 257.34 488.91 l -1.0483 -81.273 l -8.4418 -0.00001 l 3.5312 78.846 l 5.959 2.4277 z" stroke-linecap="round"/>
</g>
		<g transform="matrix(1.1315 0 0 1.1315 26.8103 104.3247)">
<path style="stroke: rgb(0,0,0); stroke-width: 0.3543; stroke-dasharray: none; stroke-linecap: butt; stroke-dashoffset: 0; stroke-linejoin: round; stroke-miterlimit: 4; is-custom-font: none; font-file-url: none; fill: rgb(204,204,204); fill-rule: evenodd; opacity: 1;" transform=" translate(-264.9542, -445.7613)" d="m 257.34 489.35 l 16.332 -4.8554 l -1.7656 -82.322 l -15.67 5.5175 l 1.1035 81.66 z" stroke-linecap="round"/>
</g>
		<g transform="matrix(1.1315 0 0 1.1315 72.1177 -40.7664)">
<path style="stroke: rgb(0,0,0); stroke-width: 0.3543; stroke-dasharray: none; stroke-linecap: butt; stroke-dashoffset: 0; stroke-linejoin: round; stroke-miterlimit: 4; is-custom-font: none; font-file-url: none; fill: rgb(102,102,102); fill-rule: evenodd; opacity: 1;" transform=" translate(-241.0102, -335.6367)" d="m 215.85 339.72 l 41.713 -12.139 l 8.6074 4.1933 l -42.595 11.918 l -7.7246 -3.9726 z" stroke-linecap="round"/>
</g>
		<g transform="matrix(1.1315 0 0 1.1315 58.8769 -5.5896)">
<path style="stroke: rgb(0,0,0); stroke-width: 0.3543; stroke-dasharray: none; stroke-linecap: butt; stroke-dashoffset: 0; stroke-linejoin: round; stroke-miterlimit: 4; is-custom-font: none; font-file-url: none; fill: rgb(179,179,179); fill-rule: evenodd; opacity: 1;" transform=" translate(-229.3082, -366.7253)" d="m 223.57 343.69 l 19.422 46.347 l -6.4004 3.7519 l -15.891 -39.064 l -5.0761 -1.3242 l 0.11035 -13.739 l 7.8349 4.0278 z" stroke-linecap="round"/>
</g>
		<g transform="matrix(1.1315 0 0 1.1315 78.2974 30.6215)">
<path style="stroke: rgb(0,0,0); stroke-width: 0.3543; stroke-dasharray: none; stroke-linecap: butt; stroke-dashoffset: 0; stroke-linejoin: round; stroke-miterlimit: 4; is-custom-font: none; font-file-url: none; fill: rgb(179,179,179); fill-rule: evenodd; opacity: 1;" transform=" translate(-246.4717, -398.728)" d="m 236.54 393.9 l 11.201 13.794 h 8.6625 l -13.352 -17.932 l -6.5107 4.1382 z" stroke-linecap="round"/>
</g>
		<g transform="matrix(1.1315 0 0 1.1315 86.8456 -12.4253)">
<path style="stroke: rgb(0,0,0); stroke-width: 0.3543; stroke-dasharray: none; stroke-linecap: butt; stroke-dashoffset: 0; stroke-linejoin: round; stroke-miterlimit: 4; is-custom-font: none; font-file-url: none; fill: rgb(230,230,230); fill-rule: evenodd; opacity: 1;" transform=" translate(-254.0265, -360.684)" d="m 223.79 343.69 l 42.375 -11.918 l 18.098 45.906 l -41.271 11.918 l -19.201 -45.906 z" stroke-linecap="round"/>
</g>
		<g transform="matrix(1.1315 0 0 1.1315 97.6758 23.752)">
<path style="stroke: rgb(0,0,0); stroke-width: 0.3543; stroke-dasharray: none; stroke-linecap: butt; stroke-dashoffset: 0; stroke-linejoin: round; stroke-miterlimit: 4; is-custom-font: none; font-file-url: none; fill: rgb(204,204,204); fill-rule: evenodd; opacity: 1;" transform=" translate(-263.598, -392.6568)" d="m 242.99 389.76 l 41.216 -12.028 v 1.8208 l -12.414 22.732 l -15.504 5.2968 l -13.297 -17.822 z" stroke-linecap="round"/>
</g>
		<g transform="matrix(1.1315 0 0 1.1315 85.2259 86.6825)">
<path style="stroke: rgb(0,0,0); stroke-width: 0.3543; stroke-dasharray: none; stroke-linecap: butt; stroke-dashoffset: 0; stroke-linejoin: round; stroke-miterlimit: 4; is-custom-font: none; font-file-url: none; fill: rgb(179,179,179); fill-rule: evenodd; opacity: 1;" transform=" translate(-252.595, -448.2738)" d="m 257.34 488.91 l -1.0483 -81.273 l -8.4418 -0.00001 l 3.5312 78.846 l 5.959 2.4277 z" stroke-linecap="round"/>
</g>
		<g transform="matrix(1.1315 0 0 1.1315 99.2103 83.8397)">
<path style="stroke: rgb(0,0,0); stroke-width: 0.3543; stroke-dasharray: none; stroke-linecap: butt; stroke-dashoffset: 0; stroke-linejoin: round; stroke-miterlimit: 4; is-custom-font: none; font-file-url: none; fill: rgb(204,204,204); fill-rule: evenodd; opacity: 1;" transform=" translate(-264.9542, -445.7613)" d="m 257.34 489.35 l 16.332 -4.8554 l -1.7656 -82.322 l -15.67 5.5175 l 1.1035 81.66 z" stroke-linecap="round"/>
</g>
		<g transform="matrix(1.1315 0 0 1.1315 144.1677 -60.1944)">
<path style="stroke: rgb(0,0,0); stroke-width: 0.3543; stroke-dasharray: none; stroke-linecap: butt; stroke-dashoffset: 0; stroke-linejoin: round; stroke-miterlimit: 4; is-custom-font: none; font-file-url: none; fill: rgb(102,102,102); fill-rule: evenodd; opacity: 1;" transform=" translate(-241.0102, -335.6367)" d="m 215.85 339.72 l 41.713 -12.139 l 8.6074 4.1933 l -42.595 11.918 l -7.7246 -3.9726 z" stroke-linecap="round"/>
</g>
		<g transform="matrix(1.1315 0 0 1.1315 130.9269 -25.0176)">
<path style="stroke: rgb(0,0,0); stroke-width: 0.3543; stroke-dasharray: none; stroke-linecap: butt; stroke-dashoffset: 0; stroke-linejoin: round; stroke-miterlimit: 4; is-custom-font: none; font-file-url: none; fill: rgb(179,179,179); fill-rule: evenodd; opacity: 1;" transform=" translate(-229.3082, -366.7253)" d="m 223.57 343.69 l 19.422 46.347 l -6.4004 3.7519 l -15.891 -39.064 l -5.0761 -1.3242 l 0.11035 -13.739 l 7.8349 4.0278 z" stroke-linecap="round"/>
</g>
		<g transform="matrix(1.1315 0 0 1.1315 150.3474 11.1935)">
<path style="stroke: rgb(0,0,0); stroke-width: 0.3543; stroke-dasharray: none; stroke-linecap: butt; stroke-dashoffset: 0; stroke-linejoin: round; stroke-miterlimit: 4; is-custom-font: none; font-file-url: none; fill: rgb(179,179,179); fill-rule: evenodd; opacity: 1;" transform=" translate(-246.4717, -398.728)" d="m 236.54 393.9 l 11.201 13.794 h 8.6625 l -13.352 -17.932 l -6.5107 4.1382 z" stroke-linecap="round"/>
</g>
		<g transform="matrix(1.1315 0 0 1.1315 158.8956 -31.8533)">
<path style="stroke: rgb(0,0,0); stroke-width: 0.3543; stroke-dasharray: none; stroke-linecap: butt; stroke-dashoffset: 0; stroke-linejoin: round; stroke-miterlimit: 4; is-custom-font: none; font-file-url: none; fill: rgb(230,230,230); fill-rule: evenodd; opacity: 1;" transform=" translate(-254.0265, -360.684)" d="m 223.79 343.69 l 42.375 -11.918 l 18.098 45.906 l -41.271 11.918 l -19.201 -45.906 z" stroke-linecap="round"/>
</g>
		<g transform="matrix(1.1315 0 0 1.1315 169.7258 4.324)">
<path style="stroke: rgb(0,0,0); stroke-width: 0.3543; stroke-dasharray: none; stroke-linecap: butt; stroke-dashoffset: 0; stroke-linejoin: round; stroke-miterlimit: 4; is-custom-font: none; font-file-url: none; fill: rgb(204,204,204); fill-rule: evenodd; opacity: 1;" transform=" translate(-263.598, -392.6568)" d="m 242.99 389.76 l 41.216 -12.028 v 1.8208 l -12.414 22.732 l -15.504 5.2968 l -13.297 -17.822 z" stroke-linecap="round"/>
</g>
		<g transform="matrix(1.1315 0 0 1.1315 157.2759 67.2545)">
<path style="stroke: rgb(0,0,0); stroke-width: 0.3543; stroke-dasharray: none; stroke-linecap: butt; stroke-dashoffset: 0; stroke-linejoin: round; stroke-miterlimit: 4; is-custom-font: none; font-file-url: none; fill: rgb(179,179,179); fill-rule: evenodd; opacity: 1;" transform=" translate(-252.595, -448.2738)" d="m 257.34 488.91 l -1.0483 -81.273 l -8.4418 -0.00001 l 3.5312 78.846 l 5.959 2.4277 z" stroke-linecap="round"/>
</g>
		<g transform="matrix(1.1315 0 0 1.1315 171.2603 64.4117)">
<path style="stroke: rgb(0,0,0); stroke-width: 0.3543; stroke-dasharray: none; stroke-linecap: butt; stroke-dashoffset: 0; stroke-linejoin: round; stroke-miterlimit: 4; is-custom-font: none; font-file-url: none; fill: rgb(204,204,204); fill-rule: evenodd; opacity: 1;" transform=" translate(-264.9542, -445.7613)" d="m 257.34 489.35 l 16.332 -4.8554 l -1.7656 -82.322 l -15.67 5.5175 l 1.1035 81.66 z" stroke-linecap="round"/>
</g>
		<g transform="matrix(1.1315 0 0 1.1315 217.2777 -80.6744)">
<path style="stroke: rgb(0,0,0); stroke-width: 0.3543; stroke-dasharray: none; stroke-linecap: butt; stroke-dashoffset: 0; stroke-linejoin: round; stroke-miterlimit: 4; is-custom-font: none; font-file-url: none; fill: rgb(102,102,102); fill-rule: evenodd; opacity: 1;" transform=" translate(-241.0102, -335.6367)" d="m 215.85 339.72 l 41.713 -12.139 l 8.6074 4.1933 l -42.595 11.918 l -7.7246 -3.9726 z" stroke-linecap="round"/>
</g>
		<g transform="matrix(1.1315 0 0 1.1315 204.0369 -45.4976)">
<path style="stroke: rgb(0,0,0); stroke-width: 0.3543; stroke-dasharray: none; stroke-linecap: butt; stroke-dashoffset: 0; stroke-linejoin: round; stroke-miterlimit: 4; is-custom-font: none; font-file-url: none; fill: rgb(179,179,179); fill-rule: evenodd; opacity: 1;" transform=" translate(-229.3082, -366.7253)" d="m 223.57 343.69 l 19.422 46.347 l -6.4004 3.7519 l -15.891 -39.064 l -5.0761 -1.3242 l 0.11035 -13.739 l 7.8349 4.0278 z" stroke-linecap="round"/>
</g>
		<g transform="matrix(1.1315 0 0 1.1315 223.4574 -9.2865)">
<path style="stroke: rgb(0,0,0); stroke-width: 0.3543; stroke-dasharray: none; stroke-linecap: butt; stroke-dashoffset: 0; stroke-linejoin: round; stroke-miterlimit: 4; is-custom-font: none; font-file-url: none; fill: rgb(179,179,179); fill-rule: evenodd; opacity: 1;" transform=" translate(-246.4717, -398.728)" d="m 236.54 393.9 l 11.201 13.794 h 8.6625 l -13.352 -17.932 l -6.5107 4.1382 z" stroke-linecap="round"/>
</g>
		<g transform="matrix(1.1315 0 0 1.1315 232.0056 -52.3333)">
<path style="stroke: rgb(0,0,0); stroke-width: 0.3543; stroke-dasharray: none; stroke-linecap: butt; stroke-dashoffset: 0; stroke-linejoin: round; stroke-miterlimit: 4; is-custom-font: none; font-file-url: none; fill: rgb(230,230,230); fill-rule: evenodd; opacity: 1;" transform=" translate(-254.0265, -360.684)" d="m 223.79 343.69 l 42.375 -11.918 l 18.098 45.906 l -41.271 11.918 l -19.201 -45.906 z" stroke-linecap="round"/>
</g>
		<g transform="matrix(1.1315 0 0 1.1315 242.8358 -16.156)">
<path style="stroke: rgb(0,0,0); stroke-width: 0.3543; stroke-dasharray: none; stroke-linecap: butt; stroke-dashoffset: 0; stroke-linejoin: round; stroke-miterlimit: 4; is-custom-font: none; font-file-url: none; fill: rgb(204,204,204); fill-rule: evenodd; opacity: 1;" transform=" translate(-263.598, -392.6568)" d="m 242.99 389.76 l 41.216 -12.028 v 1.8208 l -12.414 22.732 l -15.504 5.2968 l -13.297 -17.822 z" stroke-linecap="round"/>
</g>
		<g transform="matrix(1.1315 0 0 1.1315 230.3859 46.7745)">
<path style="stroke: rgb(0,0,0); stroke-width: 0.3543; stroke-dasharray: none; stroke-linecap: butt; stroke-dashoffset: 0; stroke-linejoin: round; stroke-miterlimit: 4; is-custom-font: none; font-file-url: none; fill: rgb(179,179,179); fill-rule: evenodd; opacity: 1;" transform=" translate(-252.595, -448.2738)" d="m 257.34 488.91 l -1.0483 -81.273 l -8.4418 -0.00001 l 3.5312 78.846 l 5.959 2.4277 z" stroke-linecap="round"/>
</g>
		<g transform="matrix(1.1315 0 0 1.1315 244.3703 43.9317)">
<path style="stroke: rgb(0,0,0); stroke-width: 0.3543; stroke-dasharray: none; stroke-linecap: butt; stroke-dashoffset: 0; stroke-linejoin: round; stroke-miterlimit: 4; is-custom-font: none; font-file-url: none; fill: rgb(204,204,204); fill-rule: evenodd; opacity: 1;" transform=" translate(-264.9542, -445.7613)" d="m 257.34 489.35 l 16.332 -4.8554 l -1.7656 -82.322 l -15.67 5.5175 l 1.1035 81.66 z" stroke-linecap="round"/>
</g>
		<g transform="matrix(1.1315 0 0 1.1315 285.7877 -99.7444)">
<path style="stroke: rgb(0,0,0); stroke-width: 0.3543; stroke-dasharray: none; stroke-linecap: butt; stroke-dashoffset: 0; stroke-linejoin: round; stroke-miterlimit: 4; is-custom-font: none; font-file-url: none; fill: rgb(102,102,102); fill-rule: evenodd; opacity: 1;" transform=" translate(-241.0102, -335.6367)" d="m 215.85 339.72 l 41.713 -12.139 l 8.6074 4.1933 l -42.595 11.918 l -7.7246 -3.9726 z" stroke-linecap="round"/>
</g>
		<g transform="matrix(1.1315 0 0 1.1315 272.5469 -64.5676)">
<path style="stroke: rgb(0,0,0); stroke-width: 0.3543; stroke-dasharray: none; stroke-linecap: butt; stroke-dashoffset: 0; stroke-linejoin: round; stroke-miterlimit: 4; is-custom-font: none; font-file-url: none; fill: rgb(179,179,179); fill-rule: evenodd; opacity: 1;" transform=" translate(-229.3082, -366.7253)" d="m 223.57 343.69 l 19.422 46.347 l -6.4004 3.7519 l -15.891 -39.064 l -5.0761 -1.3242 l 0.11035 -13.739 l 7.8349 4.0278 z" stroke-linecap="round"/>
</g>
		<g transform="matrix(1.1315 0 0 1.1315 291.9674 -28.3565)">
<path style="stroke: rgb(0,0,0); stroke-width: 0.3543; stroke-dasharray: none; stroke-linecap: butt; stroke-dashoffset: 0; stroke-linejoin: round; stroke-miterlimit: 4; is-custom-font: none; font-file-url: none; fill: rgb(179,179,179); fill-rule: evenodd; opacity: 1;" transform=" translate(-246.4717, -398.728)" d="m 236.54 393.9 l 11.201 13.794 h 8.6625 l -13.352 -17.932 l -6.5107 4.1382 z" stroke-linecap="round"/>
</g>
		<g transform="matrix(1.1315 0 0 1.1315 300.5156 -71.4033)">
<path style="stroke: rgb(0,0,0); stroke-width: 0.3543; stroke-dasharray: none; stroke-linecap: butt; stroke-dashoffset: 0; stroke-linejoin: round; stroke-miterlimit: 4; is-custom-font: none; font-file-url: none; fill: rgb(230,230,230); fill-rule: evenodd; opacity: 1;" transform=" translate(-254.0265, -360.684)" d="m 223.79 343.69 l 42.375 -11.918 l 18.098 45.906 l -41.271 11.918 l -19.201 -45.906 z" stroke-linecap="round"/>
</g>
		<g transform="matrix(1.1315 0 0 1.1315 311.3458 -35.226)">
<path style="stroke: rgb(0,0,0); stroke-width: 0.3543; stroke-dasharray: none; stroke-linecap: butt; stroke-dashoffset: 0; stroke-linejoin: round; stroke-miterlimit: 4; is-custom-font: none; font-file-url: none; fill: rgb(204,204,204); fill-rule: evenodd; opacity: 1;" transform=" translate(-263.598, -392.6568)" d="m 242.99 389.76 l 41.216 -12.028 v 1.8208 l -12.414 22.732 l -15.504 5.2968 l -13.297 -17.822 z" stroke-linecap="round"/>
</g>
		<g transform="matrix(1.1315 0 0 1.1315 298.8959 27.7045)">
<path style="stroke: rgb(0,0,0); stroke-width: 0.3543; stroke-dasharray: none; stroke-linecap: butt; stroke-dashoffset: 0; stroke-linejoin: round; stroke-miterlimit: 4; is-custom-font: none; font-file-url: none; fill: rgb(179,179,179); fill-rule: evenodd; opacity: 1;" transform=" translate(-252.595, -448.2738)" d="m 257.34 488.91 l -1.0483 -81.273 l -8.4418 -0.00001 l 3.5312 78.846 l 5.959 2.4277 z" stroke-linecap="round"/>
</g>
		<g transform="matrix(1.1315 0 0 1.1315 312.8803 24.8617)">
<path style="stroke: rgb(0,0,0); stroke-width: 0.3543; stroke-dasharray: none; stroke-linecap: butt; stroke-dashoffset: 0; stroke-linejoin: round; stroke-miterlimit: 4; is-custom-font: none; font-file-url: none; fill: rgb(204,204,204); fill-rule: evenodd; opacity: 1;" transform=" translate(-264.9542, -445.7613)" d="m 257.34 489.35 l 16.332 -4.8554 l -1.7656 -82.322 l -15.67 5.5175 l 1.1035 81.66 z" stroke-linecap="round"/>
</g>
		<g transform="matrix(1 0 0 1 -220.4901 39.6259)">
<path style="stroke: rgb(0,0,0); stroke-width: 0.4009; stroke-dasharray: none; stroke-linecap: butt; stroke-dashoffset: 0; stroke-linejoin: round; stroke-miterlimit: 4; is-custom-font: none; font-file-url: none; fill: rgb(179,179,179); fill-rule: evenodd; opacity: 1;" transform=" translate(-141.7753, -363.2633)" d="m 145.49 332 l 0.90529 62.402 l -2.4973 0.12486 l -5.8687 -5.3068 l -0.87407 -51.976 l 8.3348 -5.2444 z" stroke-linecap="round"/>
</g>
		<g transform="matrix(1 0 0 1 -276.1743 43.9261)">
<path style="stroke: rgb(0,0,0); stroke-width: 0.4009; stroke-dasharray: none; stroke-linecap: butt; stroke-dashoffset: 0; stroke-linejoin: round; stroke-miterlimit: 4; is-custom-font: none; font-file-url: none; fill: rgb(128,128,128); fill-rule: evenodd; opacity: 1;" transform=" translate(-86.0911, -367.5633)" d="m 28.512 340.7 l 1.2582 1.9866 l 113.9 51.74 l -5.8274 -5.2976 l -109.33 -48.429 z" stroke-linecap="round"/>
</g>
		<g transform="matrix(1 0 0 1 -1.8899 -91.1923)">
<path style="stroke: rgb(0,0,0); stroke-width: 0.4009; stroke-dasharray: none; stroke-linecap: butt; stroke-dashoffset: 0; stroke-linejoin: round; stroke-miterlimit: 4; is-custom-font: none; font-file-url: none; fill: rgb(77,77,77); fill-rule: evenodd; opacity: 1;" transform=" translate(-360.3755, -232.445)" d="m 29.12 280.7 l 32.851 14.5 l 46.304 -12.561 l 50.199 21.526 l -47.059 12.835 l 34.176 14.882 l 546.04 -151.42 l -119.05 -47.454 l -543.46 147.69 z" stroke-linecap="round"/>
</g>
</g>
</g>
<g transform="matrix(3.777 0 0 3.777 500.0005 361.8516)" id="101063">
<path style="stroke: rgb(0,0,0); stroke-width: 1; stroke-dasharray: none; stroke-linecap: butt; stroke-dashoffset: 0; stroke-linejoin: miter; stroke-miterlimit: 4; is-custom-font: none; font-file-url: none; fill: rgb(252,238,33); fill-rule: nonzero; opacity: 1;" vector-effect="non-scaling-stroke" transform=" translate(-41, -75)" d="M 77.3039 40.7397 L 77.3044 40.7395 C 77.5105 40.6892 77.6582 40.659 77.7589 40.6424 C 77.7984 40.6358 77.8243 40.6325 77.8383 40.6308 C 78.2424 40.6387 78.6452 40.7743 79.1104 41.2171 C 79.3652 41.5085 79.4156 41.6926 79.4286 41.7738 C 79.4416 41.8544 79.4515 42.0385 79.2891 42.3902 C 79.2882 42.3921 79.2873 42.3941 79.2864 42.3961 L 29.9938 146.621 C 29.7894 146.995 29.5841 147.178 29.4082 147.281 C 29.2229 147.39 28.9225 147.497 28.411 147.5 C 28.4013 147.499 28.3478 147.495 28.2357 147.479 C 28.1053 147.461 27.9335 147.432 27.7154 147.391 C 27.2802 147.247 27.0626 147.043 26.9115 146.798 L 26.9099 146.795 C 26.7488 146.534 26.715 146.328 26.7937 146.017 L 26.797 146.003 L 44.7919 73.1664 L 45.7834 69.1533 L 41.7688 70.1389 L 4.70476 79.2386 C 4.69266 79.2403 4.6663 79.2435 4.62314 79.2469 C 4.52594 79.2547 4.38251 79.2606 4.1825 79.2606 C 3.6287 79.2606 3.26527 79.1113 2.95692 78.853 L 2.94864 78.8461 L 2.94029 78.8392 C 2.69813 78.6399 2.62859 78.4953 2.60108 78.4138 C 2.57258 78.3295 2.53511 78.1497 2.60315 77.8057 L 20.9373 3.54183 C 21.0235 3.26773 21.1769 3.04019 21.4735 2.82017 C 21.7428 2.62134 22.0645 2.5 22.5437 2.5 H 52.5048 C 53.0637 2.5 53.4087 2.65805 53.7048 2.93949 L 53.7048 2.93953 C 54.037 3.25531 54.114 3.50041 54.1151 3.7797 C 54.1142 3.78338 54.1003 3.93684 53.927 4.27907 L 53.8644 4.4026 L 53.8159 4.5323 L 38.1972 46.2687 L 36.5409 50.6947 L 41.1317 49.5736 L 77.3039 40.7397 Z" stroke-linecap="round"/>
</g>
</svg>